<svg width="107" height="99" viewBox="0 0 107 99" fill="none" xmlns="http://www.w3.org/2000/svg">
<g clip-path="url(#clip0_65_4948)">
<path d="M0 2.57599C6.29361 0.790361 12.4409 0.0585452 18.7637 0C25.0281 0 31.3802 0.878179 37.3519 2.92726C43.382 4.85926 48.856 8.40124 53.3054 12.7921C57.9891 17.0659 60.9749 22.657 63.6972 28.1603L62.2336 27.6626C65.4243 26.0819 68.6443 24.8232 71.9521 23.7108C75.2599 22.657 78.6555 21.7788 82.139 21.369C85.5931 20.9299 89.1644 20.9592 92.56 21.8959C95.9556 22.8034 98.9415 25.0574 100.698 28.0432C98.7658 25.1745 95.7507 23.1254 92.4429 22.4228C89.1351 21.6617 85.6517 21.8374 82.3146 22.4228C75.6112 23.6523 69.1712 26.2868 63.2581 29.5361L62.3507 30.0337L61.7945 29.0384C58.8965 23.8865 55.7936 18.7345 51.2564 15.0169C46.924 11.1529 41.772 8.19633 36.181 6.70343C30.6192 5.12271 24.7646 4.5958 18.9394 4.88853C13.1727 5.21053 7.23034 6.29361 1.96127 8.07924L0 2.57599Z" fill="#0199A3"/>
<path d="M106.634 28.005C106.92 24.5571 104.422 21.5357 101.054 21.2565C97.6869 20.9773 94.7254 23.546 94.4395 26.9939C94.1536 30.4418 96.6516 33.4632 100.019 33.7424C103.386 34.0216 106.348 31.4529 106.634 28.005Z" fill="#F8AD34"/>
<path d="M96.4797 96.6006C96.4797 98.1814 96.0114 98.9717 95.1039 98.9717C94.5185 98.9717 93.611 98.9132 92.3816 98.7961C91.1814 98.679 90.2447 98.6204 89.6007 98.6204C88.9274 98.6204 87.9029 98.6497 86.5563 98.7375C85.2098 98.8253 84.1852 98.8546 83.512 98.8546C82.6631 98.8546 82.2532 97.8886 82.2532 95.9859C82.2532 94.0832 82.3118 91.3023 82.4581 87.5847C82.6045 83.867 82.6631 81.0569 82.6631 79.1834C82.6631 68.8795 82.6338 63.142 82.546 61.9418C82.224 57.7559 81.4043 54.8579 80.0285 53.2772C78.4771 51.5793 75.6962 50.7012 71.7151 50.7012C69.1976 50.7012 66.3875 51.9306 63.226 54.3602C59.9475 56.9362 58.279 59.4537 58.1326 61.9418C57.9862 65.1326 57.8984 70.9285 57.8984 79.3591C57.8984 81.3496 57.9862 84.3354 58.1326 88.3458C58.279 92.3268 58.3668 95.3419 58.3668 97.3324C58.3668 98.4448 58.0155 98.9717 57.2837 98.9717C56.5519 98.9717 55.5273 98.9132 54.1515 98.7961C52.7757 98.679 51.7219 98.6204 51.0194 98.6204C50.3754 98.6204 49.4386 98.6497 48.2092 98.7375C46.9797 98.8253 46.043 98.8546 45.399 98.8546C44.6086 98.8546 44.1988 98.2692 44.1988 97.0983C44.1988 95.137 44.2574 92.2097 44.3745 88.2579C44.4916 84.3354 44.5501 81.3789 44.5501 79.4176V64.6935C44.5501 60.0977 44.0232 56.8191 42.9401 54.8579C41.4179 52.077 38.5492 50.7012 34.2754 50.7012C31.758 50.7012 28.7722 51.7843 25.318 53.9504C21.4833 56.3215 19.5806 58.6926 19.5806 61.0929V78.9492C19.5806 80.9983 19.5806 84.0134 19.6391 88.053C19.6684 92.0927 19.6976 95.1077 19.6976 97.0983C19.6976 98.2692 19.2293 98.8546 18.3218 98.8546H7.25678C6.46642 98.8546 6.0566 98.2984 6.0566 97.2154C6.0566 93.9075 6.0566 88.9605 6.11515 82.3449C6.14442 75.7293 6.1737 70.7529 6.1737 67.4744C6.1737 60.0099 5.38333 52.5746 3.83189 45.1686C3.7148 44.6417 3.65625 44.2026 3.65625 43.8806C3.65625 43.3537 3.83189 43.061 4.18316 42.9732C5.64679 42.8268 7.81296 42.5048 10.6524 42.0657C11.9697 41.6559 13.9309 41.2168 16.5655 40.7192L17.0338 40.6607C17.5022 40.6607 17.9706 42.095 18.3804 44.9637C18.7902 47.8324 19.1707 49.2668 19.4927 49.2668L22.4785 46.5737C24.8204 44.4954 27.1914 42.8561 29.5332 41.6267C32.9289 39.841 36.2952 38.9336 39.6908 38.9336C48.8532 38.9336 54.6784 42.7683 57.1959 50.4084C59.6548 47.1592 62.7284 44.4661 66.3875 42.3292C70.2807 40.0459 74.1447 38.9043 77.9794 38.9043C85.3561 38.9043 90.4496 41.0997 93.289 45.5199C95.3088 48.7692 96.3334 53.9212 96.3334 60.9759C96.3334 62.3224 96.3041 64.4007 96.2163 67.2109C96.1285 70.0211 96.0992 72.0994 96.0992 73.446C96.0992 76.022 96.1577 79.886 96.2748 85.0379C96.3919 90.1899 96.4505 94.0539 96.4505 96.6299L96.4797 96.6006Z" fill="#F08318"/>
</g>
<defs>
<clipPath id="clip0_65_4948">
<rect width="106.669" height="99" fill="white"/>
</clipPath>
</defs>
</svg>
